<?xml version="1.0" standalone="no"?>
<!DOCTYPE svg PUBLIC "-//W3C//DTD SVG 1.1//EN" "http://www.w3.org/Graphics/SVG/1.1/DTD/svg11.dtd" >
<svg xmlns="http://www.w3.org/2000/svg">
<metadata>Generated by IcoMoon</metadata>
<defs>
<font id="icomoon" horiz-adv-x="1024">
<font-face units-per-em="1024" ascent="960" descent="-64" />
<missing-glyph horiz-adv-x="1024" />
<glyph unicode="&#x20;" horiz-adv-x="512" d="" />
<glyph unicode="&#xe900;" glyph-name="ic_alarm" d="M938.667 715.947l-196.267 164.693-55.040-65.28 196.267-164.693 55.040 65.28zM336.213 815.36l-54.613 65.28-196.267-164.267 55.040-65.28 195.84 164.267zM533.333 618.667h-64v-256l202.667-121.6 32 52.48-170.667 101.12v224zM512 789.333c-212.053 0-384-171.947-384-384s171.52-384 384-384c212.053 0 384 171.947 384 384s-171.947 384-384 384zM512 106.667c-165.12 0-298.667 133.547-298.667 298.667s133.547 298.667 298.667 298.667 298.667-133.547 298.667-298.667-133.547-298.667-298.667-298.667z" />
<glyph unicode="&#xe901;" glyph-name="ic_arrow_back" horiz-adv-x="1418" d="M745.682 79.36l147.036-143.36 525.128 512-525.128 512-147.036-143.36 273.067-266.24h-1018.749v-204.8h1018.749z" />
<glyph unicode="&#xe902;" glyph-name="ic_best_offer" horiz-adv-x="1152" d="M12.652 412.517l238.56 236.711c3.372 3.35 7.948 5.235 12.72 5.239h168c31.433-0.066 56.88-25.368 56.88-56.558v-166.698c-0.004-4.735-1.903-9.275-5.28-12.621l-237.72-236.234c-17.665-17.518-46.295-17.518-63.96 0l-168 166.698c-17.99 17.198-18.528 45.609-1.2 63.464zM430.972 550.162c0 25.91-21.168 46.914-47.28 46.914s-47.28-21.004-47.28-46.914c0-25.91 21.168-46.913 47.28-46.913s47.28 21.004 47.28 46.913zM262.972 368.223c4.771-12.936 15.043-23.128 28.080-27.862 5.949-1.952 12.263-2.562 18.48-1.786 6.377 0.8 12.556 2.736 18.24 5.715 12.344 6.15 22.482 15.919 29.040 27.981 3.046 5.631 5.039 11.763 5.88 18.099 0.753 6.209 0.138 12.506-1.8 18.456-4.61 13.037-14.941 23.289-28.080 27.862-5.997 1.923-12.343 2.533-18.6 1.786-6.385-0.838-12.564-2.814-18.24-5.834-12.032-6.287-21.864-16.042-28.2-27.981-3-5.641-4.951-11.771-5.76-18.099-0.898-6.143-0.406-12.406 1.44-18.337h-0.48zM280.252 384.060c0.993 3.942 2.657 7.687 4.92 11.074 2.502 3.784 5.398 7.296 8.64 10.478 3.347 3.409 7.094 6.407 11.16 8.93 3.47 2.22 7.279 3.869 11.28 4.882 3.63 0.851 7.41 0.851 11.040 0 7.726-2.062 13.761-8.051 15.84-15.717 0.858-3.602 0.858-7.353 0-10.954-1.019-3.97-2.681-7.75-4.92-11.193-2.394-3.795-5.212-7.31-8.4-10.478-3.262-3.1-6.841-5.854-10.68-8.216-3.413-2.245-7.187-3.896-11.16-4.882-3.643-0.996-7.478-1.078-11.16-0.238-7.681 2.198-13.755 8.046-16.2 15.598-0.979 3.493-1.102 7.167-0.36 10.716zM213.532 307.855l67.080 186.701-18.72 6.668-66.6-187.059 18.24-6.311zM114.772 399.539c4.771-12.936 15.043-23.128 28.080-27.862 5.949-1.952 12.263-2.562 18.48-1.786 6.393 0.875 12.572 2.892 18.24 5.953 12.032 6.287 21.864 16.042 28.2 27.981 3.046 5.631 5.039 11.763 5.88 18.099 1.064 6.14 0.777 12.436-0.84 18.456-4.61 13.037-14.941 23.289-28.080 27.862-5.997 1.923-12.343 2.533-18.6 1.786-6.426-0.823-12.647-2.8-18.36-5.834-12.032-6.287-21.864-16.042-28.2-27.981-3.098-5.897-5.052-12.319-5.76-18.932-0.809-5.948-0.318-11.999 1.44-17.741h-0.48zM137.332 427.758c2.502 3.784 5.398 7.296 8.64 10.478 3.193 3.163 6.735 5.959 10.56 8.335 3.469 2.222 7.279 3.871 11.28 4.882 3.63 0.851 7.41 0.851 11.040 0 7.726-2.062 13.761-8.051 15.84-15.717 0.858-3.602 0.858-7.353 0-10.954-1.017-3.971-2.679-7.751-4.92-11.193-2.394-3.795-5.212-7.31-8.4-10.478-3.207-3.217-6.747-6.091-10.56-8.573-3.413-2.245-7.187-3.896-11.16-4.882-3.624-0.897-7.416-0.897-11.040 0-7.663 2.255-13.692 8.148-16.080 15.717-0.919 3.635-0.919 7.439 0 11.073 0.93 4.017 2.554 7.844 4.8 11.312zM557.812 960c-14.912 0-27-11.995-27-26.791v-960.060c0-14.796 12.088-26.791 27-26.791s27 11.995 27 26.791v122.642h204c0.032-25.747 10.386-50.423 28.779-68.584s43.313-28.314 69.261-28.219h74.52c53.853 0.066 97.494 43.368 97.56 96.804v307.914h3.6c45.831 0.388 82.889 37.158 83.28 82.634v4.406c-0.456 45.429-37.495 82.128-83.28 82.515h-31.92c-65.76 148.123-128.4 226.113-142.44 242.545-3.191 5.22-8.112 9.177-13.92 11.193-4.56 1.548-107.4 35.959-289.44 40.722v65.488c0 14.796-12.088 26.791-27 26.791zM857.812 768l128.114-224h-384.114v256.136c55.28 3.785 97.996 3.785 128.146 0s72.768-14.497 127.854-32.136zM857.812 288c-35.346 0-64 28.654-64 64s28.654 64 64 64c35.346 0 64-28.654 64-64s-28.654-64-64-64z" />
<glyph unicode="&#xe903;" glyph-name="ic_buy" horiz-adv-x="1065" d="M112.64 509.44v389.12c0 33.932 27.508 61.44 61.44 61.44h163.84c33.932 0 61.44-27.508 61.44-61.44v-389.12h48.783c9.538 0 18.946-2.221 27.477-6.486 30.35-15.175 42.652-52.080 27.477-82.43l-210.929-421.857c-6.594-13.189-17.712-23.566-31.323-29.237-31.322-13.051-67.294 1.761-80.345 33.083l-175.774 421.857c-3.12 7.488-4.726 15.519-4.726 23.631 0 33.932 27.508 61.44 61.44 61.44h51.2zM194.56 878.080v-450.56h-102.4l146.748-352.195 176.097 352.195h-97.565v450.56h-122.88zM991.916 648.066c55.049-29.049 54.581-145.951 0.051-174.824-4.149-2.197-8.625-4.259-13.436-6.194 18.112-18.286 28.921-33.573 33.364-47.788 6.843-21.895 6.843-99.671 1.845-259.261l-0.514-5.311c-13.813-84.695-54.38-135.404-121.519-136.758-84.38-1.703-143.068 63.934-143.986 142.875l40.957 0.477v-40.96h-348.465c-22.622 0-40.96 18.338-40.96 40.96s18.338 40.96 40.96 40.96h348.465c22.436 0 40.696-18.049 40.957-40.483 0.417-35.847 24.385-62.652 60.419-61.925 19.759 0.399 33.666 17.363 41.892 65.476 4.244 136.639 4.227 221.616 1.759 229.514 0.209-0.669-4.595 5.677-13.846 14.927-12.391 12.391-30.604 28.185-54.461 47.143-28.412 22.577-15.601 68.218 20.409 72.713 29.028 3.623 50.283 8.479 62.906 13.737 1.444 4.398 2.373 10.673 2.4 17.339 0.022 5.5-0.572 10.704-1.57 14.79-8.847-1.331-30.973-7.365-62.556-21.498-21.511-9.626-46.687 0.841-55.034 22.879-41.035 108.337-82.853 168.137-118.497 180.667-44.515 15.649-122.753 22.114-232.778 18.188-22.607-0.807-41.588 16.866-42.395 39.473s16.866 41.588 39.473 42.395c119.435 4.262 206.412-2.926 262.868-22.772 58.502-20.566 107.648-84.253 152.434-190.15 41.862 14.539 73.636 16.724 98.858 3.414zM808.96 324.948h-163.84c-11.311 0-20.48 9.169-20.48 20.48v61.612c0 9.398 6.396 17.589 15.513 19.869l163.84 40.96c12.926 3.231 25.447-6.545 25.447-19.869v-102.572c0-11.311-9.169-20.48-20.48-20.48zM665.6 365.908h122.88v55.861l-122.88-30.72v-25.141z" />
<glyph unicode="&#xe904;" glyph-name="ic_check_box_black_24px" d="M810.667 832h-597.333c-47.36 0-85.333-38.4-85.333-85.333v-597.333c0-46.933 37.973-85.333 85.333-85.333h597.333c47.36 0 85.333 38.4 85.333 85.333v597.333c0 46.933-37.973 85.333-85.333 85.333zM426.667 234.667l-213.333 213.333 60.16 60.16 153.173-152.747 323.84 323.84 60.16-60.587-384-384z" />
<glyph unicode="&#xe905;" glyph-name="ic_check_box_outline_blank_black_24px" d="M810.667 746.667v-597.333h-597.333v597.333h597.333zM810.667 832h-597.333c-46.933 0-85.333-38.4-85.333-85.333v-597.333c0-46.933 38.4-85.333 85.333-85.333h597.333c46.933 0 85.333 38.4 85.333 85.333v597.333c0 46.933-38.4 85.333-85.333 85.333z" />
<glyph unicode="&#xe906;" glyph-name="ic_check_circle" d="M459.123 323.079l-118.136 123.323c-14.472 13.855-40.201 16.626-56.281 4.157-16.922-17.034-15.261-37.051-4.824-48.494l143.638-149.944c9.197-8.805 22.94-13.134 35.864-11.919 12.636-1.194 25.923 2.93 34.889 12.373l311.958 314.516c14.472 13.855 12.864 36.024-4.824 48.494-16.080 12.47-41.809 11.084-56.281-4.157l-286.003-288.348zM512-64c-282.77 0-512 229.23-512 512s229.23 512 512 512c282.77 0 512-229.23 512-512s-229.23-512-512-512z" />
<glyph unicode="&#xe907;" glyph-name="ic_close_black_24px" d="M810.667 686.507l-60.16 60.16-238.507-238.507-238.507 238.507-60.16-60.16 238.507-238.507-238.507-238.507 60.16-60.16 238.507 238.507 238.507-238.507 60.16 60.16-238.507 238.507z" />
<glyph unicode="&#xe908;" glyph-name="ic_convertible" horiz-adv-x="2264" d="M216.95 644.473l124.587 166.116c7.853 10.433 20.040 16.709 33.094 17.042v-0.006c8.842 0.238 17.54-2.27 24.897-7.179l245.906-163.938h577.363l-231.55 180.094c-14.403 11.222-20.097 30.348-14.176 47.621s22.15 28.884 40.408 28.911l213.895 0.049c9.281 0.011 18.314-2.997 25.736-8.569l272.048-204.039c40.264-30.203 87.534-49.863 137.363-56.981l291.761-41.608c147.211-21.019 257.016-147.741 257.007-296.442v-76.874c0-70.371-57.966-128.335-128.337-128.335h-146.326c-33.186-75.339-108.673-128.287-195.905-128.287-87.251 0-162.752 52.97-195.927 128.335h-891.515c-33.175-75.365-108.676-128.335-195.927-128.335s-162.752 52.97-195.927 128.335h-103.526c-70.431 0-126.694 61.705-120.311 131.847l19.55 214.904c8.426 92.737 71.642 168.865 155.812 197.34zM333.072 656.508h158.214l-105.465 70.362-52.749-70.362zM1359.71 185.942v343.181c0 13.226-6.074 25.643-16.538 33.76l-10.373 8.068h-486.436v-53.97c0.009-17.494 2.225-34.84 6.502-51.804l69.774-279.235h437.071zM1445.268 185.942h85.558c0 117.625 96.27 213.892 213.895 213.892 48.043 0 92.524-16.060 128.337-43.075v0.297h250.457c-20.434 83.025-89.291 147.616-177.433 160.21l-291.761 41.605c-64.066 9.151-124.692 34.361-176.463 73.198l-260.686 195.509h-75.026l253.662-197.187c31.237-24.285 49.461-61.686 49.461-101.266v-343.181zM2129.731 271.499h-189.083c11.548-26.235 17.967-55.184 17.967-85.557 0-0.017 0-0.034 0-0.052h128.337c24.136 0 42.779 18.658 42.779 42.778v42.83zM834.395 185.942l-64.581 258.339c-5.989 23.735-9.009 48.211-9.027 72.696v53.973h-470.551c-75.163 0-137.235-56.657-144.045-131.511l-7.429-82.385h194.254v-0.297c35.813 27.015 80.294 43.075 128.337 43.075 117.625 0 213.895-96.267 213.895-213.892h159.148zM247.457 185.942c0 30.373 6.419 59.322 17.967 85.557h-134.378l-4.234-46.953c-1.969-21.375 13.629-38.604 35.087-38.604h85.558zM1744.721 314.277c-71.381 0-128.337-56.948-128.337-128.335 0-71.384 56.956-128.338 128.337-128.338 71.39 0 128.337 56.955 128.337 128.338 0 71.387-56.947 128.335-128.337 128.335zM461.352 314.277c-71.381 0-128.337-56.948-128.337-128.335 0-71.384 56.956-128.338 128.337-128.338 71.39 0 128.337 56.955 128.337 128.338 0 71.387-56.947 128.335-128.337 128.335zM204.721 485.385c0 23.626 19.153 42.778 42.779 42.778s42.779-19.152 42.779-42.778c0-23.626-19.153-42.778-42.779-42.778s-42.779 19.152-42.779 42.778z" />
<glyph unicode="&#xe909;" glyph-name="ic_coupe" horiz-adv-x="2674" d="M1037.966 346.138l-10.941 217.818-3.515 11.442-630.224 19.097h-179.241c-25.468 0-45.156-19.695-45.156-45.155v-225.778h225.778v-0.422c41.284 54.989 106.992 90.732 180.622 90.732 62.787 0 119.81-25.987 160.842-67.734h301.835zM1042.502 255.828h-251.881c6.784-21.405 10.446-44.163 10.446-67.734h244.837l-3.402 67.734zM1128.438 346.138h620.896v207.266l-632.167 19.156 11.271-226.422zM1132.933 255.828l3.372-67.734h793.651c0 23.571 3.663 46.329 10.447 67.734h-807.47zM1994.896 346.138c41.033 41.747 98.056 67.734 160.838 67.734 73.634 0 139.339-35.741 180.622-90.728v0.418h180.622v22.405c0 68.239-50.005 125.389-117.648 134.4l-518.034 69.038-41.651 1.262v-204.529h155.251zM995.479 666.637l-47.202 153.637h-36.967c-91.666 0-181.164-28.57-255.761-81.841l-82.489-58.995 422.419-12.8zM1090.955 663.744l590.118-17.882-262.991 131.548c-56.435 28.228-118.768 42.865-181.859 42.865h-193.5l48.233-156.53zM78.579 311.223v238.118c0 74.281 61.186 135.465 135.467 135.465h211.138l177.976 127.003c89.905 64.212 197.673 98.775 308.15 98.775h324.912c77.108 0 153.285-17.886 222.247-52.391l439.743-219.952 513.112-68.437c111.823-14.916 195.966-111.029 195.966-223.836v-34.742c26.863-15.767 45.156-45.001 45.156-77.977v-22.562c0-74.281-61.186-135.468-135.467-135.468h-165.918c-39.189-67.36-112.206-112.903-195.326-112.903-92.093 0-171.793 55.915-206.812 135.468h-1166.82c-35.017-79.554-114.713-135.468-206.813-135.468-83.114 0-156.133 45.543-195.324 112.903h-211.076c-74.281 0-135.467 61.187-135.467 135.468v22.562c0 32.974 18.295 62.206 45.156 77.974zM354.081 233.249h-230.347v-22.562c0-25.463 19.688-45.155 45.156-45.155h181.75c-0.746 7.424-1.128 14.951-1.128 22.562 0 15.452 1.574 30.554 4.569 45.155zM2380.384 165.532h136.594c25.477 0 45.156 19.695 45.156 45.155v22.562h-185.191c2.995-14.601 4.569-29.703 4.569-45.155 0-7.612-0.382-15.138-1.127-22.562zM2155.734 323.562c-75.347 0-135.467-60.112-135.467-135.468 0-75.346 60.12-135.465 135.467-135.465 75.356 0 135.467 60.119 135.467 135.465 0 75.356-60.111 135.468-135.467 135.468zM575.29 323.562c-75.347 0-135.467-60.112-135.467-135.468 0-75.346 60.12-135.465 135.467-135.465 75.356 0 135.467 60.119 135.467 135.465 0 75.356-60.111 135.468-135.467 135.468zM213.964 504.176c0 24.938 20.217 45.155 45.156 45.155s45.155-20.216 45.156-45.155c0-24.938-20.217-45.155-45.156-45.155s-45.155 20.216-45.156 45.155z" />
<glyph unicode="&#xe90a;" glyph-name="ic_delete" horiz-adv-x="832" d="M329.688 235.748l86.293 83.789 86.319-83.789 64.729 62.829-86.319 83.789 86.306 83.789-64.729 62.829-86.306-83.763-86.293 83.763-64.729-62.829 86.306-83.789-86.306-83.789 64.729-62.829zM688.432 81.996c0-9.547-2.21-57.129-45.768-57.129h-440.264c-32.443 0-58.845 25.619-58.845 57.129v625.762h-91.536v-625.762c0-80.513 67.462-145.996 150.381-145.996h440.264c79.558 0 137.305 61.394 137.305 145.996v625.762h-91.536v-625.762zM604.336 875.297c-1.818 47.061-41.571 84.703-90.503 84.703h-195.679c-48.933 0-88.686-37.641-90.503-84.703h-227.651v-123.106h832v123.106h-227.664z" />
<glyph unicode="&#xe90b;" glyph-name="ic_edit" d="M679.307 900.357l-574.368-573.713c0 0-1.447-1.441-1.447-1.441-1.447-1.441-2.894-2.883-4.34-4.324s-1.447-2.883-2.894-4.324c-1.447-1.441-1.447-2.883-2.894-4.324s-1.447-4.324-2.894-5.766c0-1.441-1.447-1.441-1.447-2.883l-86.806-292.623c-5.787-20.181 0-41.803 14.468-57.66 11.574-11.532 26.042-17.298 40.51-17.298 5.787 0 11.574 1.441 15.914 2.883l293.695 86.489c1.447 0 1.447 0 2.894 1.441 1.447 0 4.34 1.441 5.787 2.883s2.894 1.441 4.34 2.883c1.447 1.441 2.894 1.441 4.34 2.883s2.894 2.883 4.34 4.324c0 0 1.447 1.441 1.447 1.441l574.368 572.272c79.572 79.282 79.572 209.016 0 288.298-75.232 77.84-205.442 77.84-285.014-1.441zM144.001 78.708l28.935 98.021 69.445-69.192-98.38-28.83zM352.336 162.314l-124.422 123.968 449.946 448.304 124.422-123.968-449.946-448.304zM886.195 694.224l-1.447-1.441-124.422 123.968 1.447 1.441c34.723 34.596 91.147 34.596 124.422 0 34.723-34.596 34.723-89.372 0-123.968z" />
<glyph unicode="&#xe90c;" glyph-name="ic_email" d="M853.333 789.333h-682.667c-46.933 0-84.907-38.4-84.907-85.333l-0.427-512c0-46.933 38.4-85.333 85.333-85.333h682.667c46.933 0 85.333 38.4 85.333 85.333v512c0 46.933-38.4 85.333-85.333 85.333zM853.333 618.667l-341.333-213.333-341.333 213.333v85.333l341.333-213.333 341.333 213.333v-85.333z" />
<glyph unicode="&#xe90d;" glyph-name="ic_exit_to_app_black_24px" d="M430.507 294.827l60.16-60.16 213.333 213.333-213.333 213.333-60.16-60.16 110.080-110.507h-412.587v-85.333h412.587l-110.080-110.507zM810.667 832h-597.333c-47.36 0-85.333-38.4-85.333-85.333v-170.667h85.333v170.667h597.333v-597.333h-597.333v170.667h-85.333v-170.667c0-46.933 37.973-85.333 85.333-85.333h597.333c46.933 0 85.333 38.4 85.333 85.333v597.333c0 46.933-38.4 85.333-85.333 85.333z" />
<glyph unicode="&#xe90e;" glyph-name="ic_hatchback" horiz-adv-x="2446" d="M149.68 561.040c-10.429-20.599-15.992-43.488-15.992-66.816v-113.797h147.436c45.645 55.081 114.514 90.307 191.23 90.307 136.623 0 248.356-111.718 248.356-248.344 0-7.607-0.346-15.138-1.024-22.576h927.737c-0.678 7.438-1.024 14.968-1.024 22.576 0 136.625 111.733 248.344 248.356 248.344 76.717 0 145.585-35.226 191.23-90.307h216.012c-31.19 65.763-93.375 114.382-169.643 126.119l-353.934 54.494h-1628.74zM216.941 651.347h222.841l59.309 177.922c-100.022-11.997-191.977-63.136-254.98-143.324l-27.17-34.598zM535.029 651.347h421.421l-45.163 180.644h-316.041l-60.217-180.644zM1049.594 651.347h562.392l-201.597 115.207c-75.049 42.885-160.14 65.437-246.585 65.437h-159.373l45.163-180.644zM233.44 290.121h-99.753v-45.124c0-25.463 19.679-45.155 45.156-45.155h46.177c-0.676 7.429-1.022 14.95-1.022 22.548 0 23.458 3.294 46.181 9.442 67.731zM251.285 109.535h-72.441c-74.281 0-135.467 61.184-135.467 135.462v249.228c0 53.398 17.99 105.288 50.981 147.272l78.842 100.188c89.552 113.903 226.582 180.613 371.477 180.613l619.128-0.027c102.151 0 202.694-26.761 291.389-77.431l341.846-195.249 349.071-53.794c153.881-23.689 267.935-156.682 267.935-312.371v-38.451c0-74.278-61.186-135.462-135.467-135.462h-162.765c-41.274-80.258-125.016-135.465-221.057-135.465s-179.781 55.206-221.056 135.462h-980.289c-41.275-80.256-125.016-135.462-221.056-135.462-96.051 0-179.8 55.218-221.070 135.489zM2133.668 290.121c6.148-21.55 9.442-44.273 9.442-67.731 0-7.606-0.346-15.135-1.024-22.572h136.491c25.477 0 45.156 19.695 45.156 45.155v38.451c0 2.239-0.032 4.472-0.097 6.697h-189.967zM1646.399 515.889c16.287 0.233 31.437-8.321 39.649-22.388s8.212-31.465 0-45.531c-8.211-14.066-23.362-22.621-39.649-22.388h-43.918c-16.287-0.233-31.437 8.321-39.649 22.388s-8.212 31.465 0 45.531c8.212 14.066 23.362 22.621 39.649 22.388h43.918zM1894.754 380.427c-87.819 0-158.044-70.212-158.044-158.037 0-87.822 70.226-158.037 158.044-158.037s158.044 70.216 158.044 158.037c0 87.825-70.226 158.037-158.044 158.037zM472.354 380.427c-87.819 0-158.044-70.212-158.044-158.037 0-87.822 70.226-158.037 158.044-158.037s158.044 70.216 158.044 158.037c0 87.825-70.226 158.037-158.044 158.037zM1149.164 515.889v-90.307h-90.311v90.307h90.311z" />
<glyph unicode="&#xe90f;" glyph-name="ic_keyboard_arrow_down_black_24px" d="M316.16 625.493l195.84-195.413 195.84 195.413 60.16-60.16-256-256-256 256z" />
<glyph unicode="&#xe910;" glyph-name="ic_keyboard_arrow_right_black_24px" d="M366.507 262.827l195.413 195.84-195.413 195.84 60.16 60.16 256-256-256-256z" />
<glyph unicode="&#xe911;" glyph-name="ic_mileage" horiz-adv-x="1365" d="M682.667 960c-248.804-0.301-477.789-132.672-597.838-345.597s-112.198-472.768 20.498-678.403h1154.68c132.696 205.635 140.547 465.478 20.498 678.403s-349.034 345.296-597.838 345.597zM614.315 776.125c0 36.883 30.602 66.783 68.351 66.783s68.351-29.9 68.351-66.783v-77.468c0-36.883-30.602-66.783-68.351-66.783s-68.351 29.9-68.351 66.783v77.468zM266.635 225.391h-79.287c-37.749 0-68.351 29.9-68.351 66.783s30.602 66.783 68.351 66.783h79.287c37.749 0 68.351-29.9 68.351-66.783s-30.602-66.783-68.351-66.783zM388.301 514.783c-18.122 0.016-35.496 7.062-48.302 19.59l-56.048 52.981c-25.095 26.313-24.354 67.318 1.675 92.75s67.997 26.155 94.928 1.636l56.048-54.762c18.273-19.233 23.324-47.139 12.91-71.329s-34.362-40.178-61.212-40.866zM682.667 69.565c-89.333-1.281-171.188 48.572-209.35 127.5s-25.586 172.366 32.163 238.972c57.749 66.606 150.012 94.088 235.97 70.285l318.973 218.157c18.079 15.127 45.030 14.11 61.861-2.335s17.872-42.777 2.389-60.441l-223.281-311.652c19.57-66.755 5.725-138.619-37.347-193.853s-110.311-87.351-181.377-86.634zM1177.985 225.391h-79.287c-37.749 0-68.351 29.9-68.351 66.783s30.602 66.783 68.351 66.783h79.287c37.749 0 68.351-29.9 68.351-66.783s-30.602-66.783-68.351-66.783zM682.667 381.217c-50.333 0-91.135-39.866-91.135-89.043s40.802-89.043 91.135-89.043c50.333 0 91.135 39.866 91.135 89.043s-40.802 89.043-91.135 89.043z" />
<glyph unicode="&#xe912;" glyph-name="ic_minivan" horiz-adv-x="2406" d="M335.248 337.118c33.959 25.577 76.075 40.772 121.552 40.772 104.887 0 191.9-80.829 202.183-183.441h1057.657c0 112.085 91.456 203.818 203.2 203.818 66.102 0 125.105-32.1 162.276-81.525h220.118c-11.427 57.797-48.397 128.48-96.483 137.244l-522.452 44.029c-3.028 0.515-6.032 1.157-9.005 1.92l-1420.695 31.063c-14.988 0.002-28.758 8.278-35.83 21.534s-6.296 29.339 2.017 41.848l88.042 233.855-47.331-0.912c-11.786 0-22.767-5.53-30.318-14.653l-112.035-287.348c-3.108-11.854-6.786-24.765-6.786-34.319v-153.883h223.889zM270.67 255.593h-158.914c2.353-17.033 14.988-30.707 32.311-34.182l111.067-22.335c2.45 19.843 7.773 38.827 15.536 56.517zM2118.928 235.211c2.696-13.181 4.112-26.814 4.112-40.762 0-6.857-0.342-13.639-1.011-20.327h143.251c22.929 0 40.64 17.787 40.64 40.762v20.327h-186.992zM1733.712 112.914h-1083.115c-26.056-82.457-103.269-142.67-193.797-142.67-91.090 0-168.699 60.963-194.276 144.207l-134.493 27.014c-56.742 11.397-97.951 61.867-97.951 119.916v229.617c0 28.6 0 59.216 19.477 98.068l118.234 275.823c22.596 27.187 55.847 43.226 91.123 43.957l892.895 17.142c84.076 1.843 166.957-20.306 239.077-63.692l293.372-278.834c4.226-2.458 8.673-4.393 13.493-5.192l522.606-44.029c96.366-17.572 166.843-153.427 166.843-251.676v-67.682c0-67.056-55.067-122.287-121.92-122.287h-169.621c-35.264-60.835-100.993-101.975-175.819-101.975-82.886 0-154.611 50.48-186.128 122.293zM690.547 835.607l-2.416-231.362 387.894-8.958 0.908 247.765-386.385-7.444zM607.669 834.010l-213.381-4.111-64.805-217.371 275.806-6.37 2.38 227.852zM1159.152 844.597l-0.92-251.209 410.029-9.47-219.282 208.539c-57.362 34.503-123.012 52.457-189.826 52.14zM1919.84 316.742c-67.812 0-121.92-54.27-121.92-122.293s54.108-122.293 121.92-122.293c67.82 0 121.92 54.27 121.92 122.293s-54.1 122.293-121.92 122.293zM456.8 296.356c-67.812 0-121.92-54.261-121.92-122.293 0-68.014 54.108-122.293 121.92-122.293 67.82 0 121.92 54.279 121.92 122.293 0 68.033-54.1 122.293-121.92 122.293zM1248.646 459.411v-81.522h-81.28v81.522h81.28zM781.286 459.411v-81.522h-81.28v81.522h81.28z" />
<glyph unicode="&#xe913;" glyph-name="ic_new_auction_successfull_msg" horiz-adv-x="1489" d="M955.673 832.075c-15.941-37.63-24.764-79.053-24.764-122.55 0-159.253 118.261-290.687 271.156-310.072 7.96-9.328 12.897-17.021 14.812-23.079 5.889-18.632 5.889-120.916 0-306.853-13.877-84.138-48.355-126.756-103.434-127.855-82.619-1.649-128.289 63.723-129.044 127.855h-727.585c-0.755-64.133-46.425-129.504-129.044-127.855-55.079 1.099-89.558 43.718-103.434 127.855-5.889 185.937-5.889 288.221 0 306.853s40.367 52.727 103.434 102.284c-47.625 5.878-82.103 14.402-103.434 25.571-31.997 16.754-32.895 110.69 0 127.855 21.93 11.443 65.088 2.92 129.473-25.571 56.809 148.314 117.086 233.551 180.83 255.711 53.939 18.751 149.261 36.491 285.968 35.715 136.706 0.776 232.029-16.964 285.968-35.715 16.602-5.771 32.968-15.821 49.099-30.149zM232.727 265.209h206.869c14.995 0 27.152 12.156 27.152 27.152v76.928c0 12.485-8.515 23.362-20.635 26.358l-206.869 51.142c-17.119 4.232-33.668-8.723-33.668-26.358v-128.070c0-14.995 12.156-27.152 27.152-27.152zM412.444 319.512h-152.566v66.237l152.566-37.717v-28.52zM1008.485 265.209c14.995 0 27.152 12.156 27.152 27.152v128.070c0 17.635-16.548 30.59-33.668 26.358l-206.869-51.142c-12.121-2.996-20.635-13.873-20.635-26.358v-76.928c0-14.995 12.156-27.152 27.152-27.152h206.869zM981.333 319.512h-152.566v28.52l152.566 37.717v-66.237zM1241.212 466.808c-132.704 0-240.485 108.557-240.485 242.717s107.781 242.717 240.485 242.717c132.704 0 240.485-108.557 240.485-242.717s-107.781-242.717-240.485-242.717zM1335.855 789.222l-21.721 21.877-97.745-98.449 21.721-21.877 97.745 98.449zM1401.018 811.099l-162.909-165.644-65.164 65.632-21.721-21.877 86.885-87.51 186.182 187.521-23.273 21.877zM1062.788 689.21l86.885-87.51 21.721 21.877-86.885 87.51-21.721-21.877z" />
<glyph unicode="&#xe914;" glyph-name="ic_notifications_off" d="M853.333 162.56l-628.48 648.533-54.187-54.187 119.467-119.467v-0.427c-22.187-42.24-34.133-92.16-34.133-145.92v-213.333l-85.333-85.333v-42.667h585.813l85.333-85.333 54.187 54.187-42.667 43.947zM512 21.333c47.36 0 85.333 37.973 85.333 85.333h-170.667c0-47.36 37.973-85.333 85.333-85.333zM768 333.653v157.013c0 131.413-69.973 240.64-192 269.653v29.013c0 35.413-28.587 64-64 64s-64-28.587-64-64v-29.013c-6.4-1.28-12.373-3.413-17.92-5.12-4.267-1.28-8.533-2.987-12.8-4.693h-0.427c-0.427 0-0.427 0-0.853-0.427-9.813-3.84-19.627-8.533-29.013-13.227 0 0-0.427 0-0.427-0.427l381.44-402.773z" />
<glyph unicode="&#xe915;" glyph-name="ic_phone" d="M282.453 499.627c61.44-120.747 160.427-219.307 281.173-281.173l93.867 93.867c11.52 11.52 28.587 15.36 43.52 10.24 47.787-15.787 99.413-24.32 152.32-24.32 23.467 0 42.667-19.2 42.667-42.667v-148.907c0-23.467-19.2-42.667-42.667-42.667-400.64 0-725.333 324.693-725.333 725.333 0 23.467 19.2 42.667 42.667 42.667h149.333c23.467 0 42.667-19.2 42.667-42.667 0-53.333 8.533-104.533 24.32-152.32 4.693-14.933 1.28-31.573-10.667-43.52l-93.867-93.867z" />
<glyph unicode="&#xe916;" glyph-name="ic_photo_camera_black_24px" d="M648.533 448c0-75.405-61.128-136.533-136.533-136.533s-136.533 61.128-136.533 136.533c0 75.405 61.128 136.533 136.533 136.533s136.533-61.128 136.533-136.533zM384 874.667l-78.080-85.333h-135.253c-46.933 0-85.333-38.4-85.333-85.333v-512c0-46.933 38.4-85.333 85.333-85.333h682.667c46.933 0 85.333 38.4 85.333 85.333v512c0 46.933-38.4 85.333-85.333 85.333h-135.253l-78.080 85.333h-256zM512 234.667c-117.76 0-213.333 95.573-213.333 213.333s95.573 213.333 213.333 213.333 213.333-95.573 213.333-213.333-95.573-213.333-213.333-213.333z" />
<glyph unicode="&#xe917;" glyph-name="ic_price_reduced" d="M0 960h1024l-512-1024z" />
<glyph unicode="&#xe918;" glyph-name="ic_price" horiz-adv-x="768" d="M747.456 532.405l-59.010 137.931c-25.571-34.968-49.175-60.223-76.713-79.65 0-13.599-3.934-27.198-11.802-38.854-23.604-36.911-72.779-50.51-110.151-27.198s-51.142 71.879-27.538 108.791c23.604 36.911 72.779 50.51 110.151 27.198 5.901-3.885 9.835-7.771 15.736-11.656 27.538 23.312 49.175 52.453 70.812 87.421l-7.868 23.312c-7.868 19.427-29.505 33.026-51.142 29.14l-224.237-33.026c-13.769-1.943-27.538-9.713-33.439-23.312l-342.256-553.666 405.2-242.836 338.322 551.723c9.835 15.542 9.835 31.083 3.934 44.682zM375.695 180.779c-9.835-5.828-19.67-9.713-29.505-9.713-11.802-1.943-21.637 0-33.439 3.885-3.934 1.943-9.835 3.885-13.769 3.885l-11.802-17.484-23.604 13.599 9.835 17.484c-5.901 3.885-11.802 7.771-15.736 11.656-5.901 5.828-11.802 9.713-15.736 13.599s-7.868 9.713-9.835 13.599c-1.967 3.885-3.934 7.771-3.934 9.713s0 5.828 0 9.713c1.967 3.885 3.934 7.771 7.868 15.542 1.967 3.885 3.934 7.771 5.901 9.713s3.934 3.885 5.901 5.828c1.967 1.943 1.967 1.943 3.934 1.943s1.967 0 3.934-1.943c1.967 0 3.934-3.885 5.901-7.771s3.934-7.771 7.868-13.599c3.934-5.828 7.868-9.713 11.802-15.542 5.901-5.828 11.802-9.713 19.67-15.542 3.934-3.885 9.835-5.828 13.769-5.828 3.934-1.943 7.868-1.943 11.802-1.943s7.868 1.943 9.835 3.885c3.934 1.943 5.901 3.885 7.868 7.771s3.934 7.771 1.967 13.599c0 3.885-1.967 9.713-5.901 13.599-3.934 5.828-5.901 9.713-11.802 15.542-3.934 5.828-7.868 11.656-13.769 17.484-3.934 5.828-7.868 11.656-11.802 19.427-3.934 5.828-5.901 13.599-7.868 19.427-1.967 7.771-1.967 15.542 0 23.312s3.934 15.542 9.835 25.255c5.901 9.713 11.802 15.542 21.637 21.37 7.868 5.828 17.703 9.713 27.538 9.713 9.835 1.943 21.637 0 31.472-1.943 5.901-1.943 9.835-3.885 15.736-5.828l11.802 17.484 23.604-13.599-9.835-15.542c3.934-1.943 7.868-5.828 11.802-7.771 5.901-3.885 9.835-7.771 13.769-11.656s5.901-7.771 9.835-11.656c1.967-3.885 3.934-5.828 3.934-7.771s1.967-3.885 0-5.828c0-1.943 0-3.885-1.967-3.885 0-1.943-1.967-3.885-1.967-5.828-1.967-1.943-1.967-5.828-3.934-7.771-1.967-3.885-3.934-7.771-5.901-9.713s-3.934-3.885-3.934-5.828c-1.967-1.943-1.967-1.943-3.934-1.943s-1.967 0-3.934 1.943c-1.967 0-1.967 1.943-3.934 5.828s-3.934 5.828-7.868 11.656c-3.934 3.885-5.901 7.771-11.802 13.599-3.934 3.885-9.835 9.713-17.703 13.599-3.934 3.885-9.835 5.828-13.769 5.828-3.934 1.943-7.868 1.943-11.802 1.943s-5.901-1.943-9.835-3.885c-1.967-1.943-3.934-3.885-5.901-7.771s-3.934-9.713-1.967-13.599c0-3.885 1.967-9.713 5.901-13.599 3.934-5.828 5.901-9.713 11.802-15.542 3.934-5.828 9.835-11.656 13.769-17.484s7.868-11.656 11.802-19.427c3.934-5.828 5.901-13.599 7.868-21.37s1.967-15.542 0-23.312c-1.967-7.771-3.934-15.542-9.835-25.255-3.934-9.713-11.802-19.427-21.637-25.255zM603.866 808.267c-9.835 9.713-19.67 21.37-27.538 31.083-1.967 1.943-1.967 5.828 0 7.771 13.769 21.37 25.571 40.796 39.34 60.223 15.736 21.37 35.406 38.854 62.944 48.567 39.34 13.599 78.68-7.771 86.548-48.567 5.901-27.198 1.967-54.395-5.901-81.593-15.736-52.453-41.307-101.020-72.779-145.702-25.571-36.911-55.076-69.937-94.415-93.249-19.67-11.656-39.34-19.427-60.977-19.427-13.769 0-23.604 7.771-23.604 21.37s7.868 21.37 21.637 23.312c3.934 0 7.868 0 9.835 0 19.67 3.885 35.406 15.542 49.175 27.198 37.373 29.14 64.911 67.994 88.514 108.791 19.67 36.911 37.373 73.822 43.274 114.619 1.967 13.599 1.967 25.255-1.967 38.854-3.934 11.656-9.835 15.542-21.637 11.656-5.901-1.943-11.802-3.885-17.703-7.771-17.703-11.656-31.472-27.198-43.274-44.682s-21.637-34.968-31.472-52.453z" />
<glyph unicode="&#xe919;" glyph-name="ic_profile" horiz-adv-x="906" d="M882.215 30.523c-11.815 90.585-82.708 165.415-177.231 185.108-27.569 7.877-55.138 7.877-82.708 3.938-7.877 0-15.754 0-23.631 0-3.938 0-7.877 0-15.754 0 0 11.815 0 27.569 0 39.385 55.138 51.2 90.585 114.215 98.462 185.108 43.323 11.815 63.015 39.385 63.015 82.708v19.692c0 15.754 0 31.508 0 47.262 0 19.692-7.877 35.446-19.692 47.262-3.938 3.938-7.877 7.877-15.754 11.815-3.938 3.938-3.938 3.938-7.877 7.877 0 11.815 0 27.569 0 39.385 0 7.877 0 11.815 3.938 15.754 7.877 23.631 11.815 43.323 7.877 63.015-3.938 47.262-31.508 86.646-74.831 118.154-39.385 23.631-86.646 39.385-141.785 39.385-51.2 0-102.4-7.877-157.538-31.508-11.815-3.938-23.631-7.877-39.385-7.877-35.446 0-70.892-19.692-94.523-55.138-15.754-23.631-27.569-51.2-27.569-78.769 0-31.508-3.938-63.015-3.938-94.523v-3.938c-27.569-15.754-43.323-43.323-39.385-74.831 0-15.754 0-27.569 0-43.323 0-7.877 0-15.754 0-23.631 0-27.569 11.815-51.2 35.446-63.015 7.877-3.938 15.754-7.877 23.631-7.877 3.938 0 3.938 0 7.877-3.938 11.815-74.831 43.323-137.846 102.4-189.046 0-11.815 0-23.631 0-39.385 0 0 0 0 0 0-51.2 0-90.585-3.938-126.031-19.692-94.523-43.323-145.723-110.277-149.662-204.8 0-11.815 3.938-23.631 11.815-31.508s15.754-11.815 27.569-11.815c0 0 0 0 0 0 19.692 0 39.385 15.754 39.385 43.323 0 11.815 3.938 23.631 7.877 35.446 19.692 59.077 82.708 106.338 149.662 110.277 15.754 0 35.446 0 51.2 0 11.815 0 19.692 0 31.508 0 23.631 0 39.385 15.754 39.385 39.385v31.508c43.323-15.754 82.708-15.754 126.031 0v-27.569c0-27.569 15.754-43.323 43.323-43.323h94.523c47.262 0 82.708-11.815 110.277-39.385 31.508-27.569 47.262-63.015 47.262-110.277 0-23.631 19.692-39.385 39.385-39.385 11.815 0 19.692 3.938 27.569 11.815s11.815 19.692 11.815 31.508c0 15.754 0 23.631-3.938 35.446zM275.692 483.446c0 15.754-7.877 39.385-43.323 43.323-7.877 0-15.754 3.938-19.692 3.938 0 7.877 0 15.754 0 23.631v19.692c0 7.877 0 15.754 0 27.569 7.877 0 15.754 3.938 19.692 7.877 19.692 11.815 23.631 27.569 23.631 39.385v19.692c0 19.692 0 39.385 0 59.077 0 15.754 3.938 35.446 7.877 51.2 11.815 39.385 43.323 43.323 63.015 47.262 11.815 0 27.569 3.938 39.385 7.877 51.2 19.692 94.523 27.569 133.908 27.569 3.938 0 7.877 0 11.815 0 39.385 0 66.954-11.815 94.523-27.569 23.631-15.754 35.446-35.446 35.446-59.077 0-3.938-3.938-11.815-3.938-19.692 0-3.938-3.938-7.877-3.938-11.815v-3.938c-3.938-7.877-3.938-15.754-3.938-23.631 0-11.815 0-27.569 0-39.385 0-7.877 0-19.692 0-27.569 0-19.692 7.877-35.446 27.569-43.323h3.938c11.815-3.938 11.815-7.877 11.815-15.754 0-15.754 0-31.508 0-51.2v-11.815c-7.877 0-11.815-3.938-19.692-3.938-31.508-3.938-39.385-23.631-43.323-43.323 0-51.2-19.692-94.523-55.138-137.846-7.877-7.877-19.692-19.692-27.569-27.569l-7.877-3.938c-15.754-11.815-27.569-19.692-43.323-23.631-35.446-11.815-70.892-7.877-102.4 15.754-59.077 47.262-94.523 106.338-98.462 181.169z" />
<glyph unicode="&#xe91a;" glyph-name="ic_radius" d="M0 448h512v-512h56.889l455.111 1024-1024-455.111z" />
<glyph unicode="&#xe91b;" glyph-name="ic_sedan" horiz-adv-x="2503" d="M1201.334 290.138l5.151-87.74-43.563-2.574h469.156l63.297 202.684c14.025 44.871 13.602 92.649-0.709 136.824l-508.828 14.778 10.195-173.663h325.954c16.294 0.245 31.456-8.308 39.674-22.38s8.218-31.479 0-45.551c-8.218-14.072-23.38-22.624-39.674-22.38h-320.652zM1110.866 290.138h-197.071c-16.294-0.245-31.456 8.308-39.674 22.38s-8.218 31.479 0 45.551c8.218 14.072 23.38 22.624 39.674 22.38h191.745l-10.397 176.297-480.596 13.959 41.687-153.037c95.68-26.193 166.545-114.158 166.545-217.842h293.412l-5.326 90.313zM1726.648 199.824h66.976c0 124.16 101.618 225.778 225.778 225.778 62.787 0 119.81-25.987 160.842-67.734h204.102c-26.195 59.901-77.904 106.948-143.78 126.16l-340.428 99.304c-6.322 2.048-12.526 4.164-18.523 6.861l-140.858 64.626 21.828-43.654c36.558-73.124 43.431-157.628 19.047-235.657l-54.982-175.684zM1609.712 714.943l-174.361 79.997c-53.13 24.371-110.893 37.045-169.333 37.045h-138.134l43.193-187.199 480.694-13.961-42.060 84.119zM1676.185 783.956l243.206-111.415c1.987-1.024 4.064-1.707 6.141-2.389l340.437-99.314c134.672-39.305 227.539-163.13 227.539-303.411v-22.562c0-74.281-61.186-135.468-135.467-135.468h-131.88c-35.044-79.489-114.707-135.345-206.76-135.345-92.099 0-171.796 55.913-206.813 135.465h-1008.775c-35.017-79.552-114.713-135.465-206.813-135.465-92.175 0-171.926 56.004-206.898 135.66h-201.111c-25.513 1.024-55.045 8.397-82.906 29.457-27.861 21.094-51.044 59.372-50.972 106.015 0 36.591 17.897 69.42 45.326 90.119h-0.178v256.819c0 69.205 53.202 127.881 122.064 134.762l125.234 12.527c6.322 1.024 12.49 2.731 17.99 5.769l278.519 159.109c20.465 11.708 43.629 17.988 67.201 17.988l554.772 0.041c71.427 0 142.15-15.565 207.083-45.336l202.51-92.772 0.337 0.169 0.21-0.419zM561.234 422.751l-41.055 150.693-329.605 9.573v-224.964l245.588-0.182c33.083 33.659 76.56 57.072 125.072 64.881zM755.501 831.984l-124.692-171.508 446.882-12.979-42.556 184.487h-279.634zM604.417 777.711l-193.815-110.839 115.14-3.344c3.985 9.414 9.057 18.429 15.177 26.847l63.498 87.336zM2234.734 267.559c6.784-21.405 10.446-44.163 10.446-67.734 0-0.040 0-0.080 0-0.119h112.862c25.477 0 45.156 19.695 45.156 45.158v22.562c0 0.044 0 0.089 0 0.133h-168.463zM381.67 267.559h-213.646c-13.005 0-22.578-9.591-22.578-22.562 1.716-34.871 28.042-44.824 46.212-44.977h179.566c0.020 23.501 3.681 46.194 10.446 67.54zM2019.402 335.293c-75.347 0-135.467-60.119-135.467-135.468 0-75.353 60.12-135.465 135.467-135.465s135.467 60.112 135.467 135.465c0 75.349-60.12 135.468-135.467 135.468zM597.002 335.293c-75.347 0-135.467-60.119-135.467-135.468 0-75.353 60.12-135.465 135.467-135.465s135.467 60.112 135.467 135.465c0 75.349-60.12 135.468-135.467 135.468z" />
<glyph unicode="&#xe91c;" glyph-name="ic_sell_car_successfull_msg" horiz-adv-x="1489" d="M955.673 832.075c-15.941-37.63-24.764-79.053-24.764-122.55 0-159.253 118.261-290.687 271.156-310.072 7.96-9.328 12.897-17.021 14.812-23.079 5.889-18.632 5.889-120.916 0-306.853-13.877-84.138-48.355-126.756-103.434-127.855-82.619-1.649-128.289 63.723-129.044 127.855h-727.585c-0.755-64.133-46.425-129.504-129.044-127.855-55.079 1.099-89.558 43.718-103.434 127.855-5.889 185.937-5.889 288.221 0 306.853s40.367 52.727 103.434 102.284c-47.625 5.878-82.103 14.402-103.434 25.571-31.997 16.754-32.895 110.69 0 127.855 21.93 11.443 65.088 2.92 129.473-25.571 56.809 148.314 117.086 233.551 180.83 255.711 53.939 18.751 149.261 36.491 285.968 35.715 136.706 0.776 232.029-16.964 285.968-35.715 16.602-5.771 32.968-15.821 49.099-30.149zM232.727 265.209h206.869c14.995 0 27.152 12.156 27.152 27.152v76.928c0 12.485-8.515 23.362-20.635 26.358l-206.869 51.142c-17.119 4.232-33.668-8.723-33.668-26.358v-128.070c0-14.995 12.156-27.152 27.152-27.152zM412.444 319.512h-152.566v66.237l152.566-37.717v-28.52zM1008.485 265.209c14.995 0 27.152 12.156 27.152 27.152v128.070c0 17.635-16.548 30.59-33.668 26.358l-206.869-51.142c-12.121-2.996-20.635-13.873-20.635-26.358v-76.928c0-14.995 12.156-27.152 27.152-27.152h206.869zM981.333 319.512h-152.566v28.52l152.566 37.717v-66.237zM1241.212 466.808c-132.704 0-240.485 108.557-240.485 242.717s107.781 242.717 240.485 242.717c132.704 0 240.485-108.557 240.485-242.717s-107.781-242.717-240.485-242.717zM1272.242 742.788v108.606h-62.061v-108.606h-108.606v-62.061h108.606v-108.606h62.061v108.606h108.606v62.061h-108.606z" />
<glyph unicode="&#xe91d;" glyph-name="ic_sell" horiz-adv-x="1065" d="M920.394 26.127c0-33.932-27.508-61.44-61.44-61.44h-163.84c-33.932 0-61.44 27.508-61.44 61.44v389.12h-48.783c-9.538 0-18.946 2.221-27.477 6.486-30.35 15.175-42.652 52.080-27.477 82.43l210.929 421.857c6.594 13.189 17.712 23.566 31.323 29.237 31.322 13.051 67.294-1.761 80.345-33.083l175.774-421.857c3.12-7.488 4.726-15.519 4.726-23.631 0-33.932-27.508-61.44-61.44-61.44h-51.2v-389.12zM838.474 497.167h102.4l-146.748 352.195-176.097-352.195h97.565v-450.56h122.88v450.56zM41.118 635.792c25.222 13.309 56.996 11.125 98.858-3.414 44.786 105.898 93.932 169.585 152.434 190.15 56.666 19.921 156.694 27.014 303.547 22.781 22.612-0.652 40.415-19.511 39.763-42.123s-19.511-40.415-42.123-39.763c-137.22 3.955-229.714-2.604-274.019-18.179-35.644-12.53-77.462-72.33-118.497-180.667-8.347-22.038-33.524-32.504-55.034-22.879-31.583 14.133-53.709 20.167-62.556 21.498-0.998-4.086-1.592-9.291-1.57-14.79 0.027-6.666 0.955-12.941 2.4-17.339 12.624-5.258 33.878-10.114 62.906-13.737 36.010-4.495 48.821-50.136 20.409-72.713-23.858-18.958-42.071-34.752-54.461-47.143-9.251-9.251-14.055-15.597-13.846-14.927-2.468-7.897-2.485-92.875 1.759-229.514 8.226-48.113 22.133-65.077 41.892-65.476 36.035-0.727 60.002 26.078 60.419 61.925 0.261 22.434 18.522 40.483 40.957 40.483h307.505c22.622 0 40.96-18.338 40.96-40.96s-18.338-40.96-40.96-40.96h-307.505v40.96l40.957-0.477c-0.919-78.941-59.607-144.578-143.986-142.875-67.139 1.355-107.706 52.063-121.52 136.758l-0.514 5.311c-4.998 159.59-4.998 237.366 1.845 259.261 4.443 14.216 15.252 29.502 33.364 47.788-4.811 1.935-9.287 3.997-13.436 6.194-54.529 28.873-54.998 145.776 0.051 174.824zM224.074 312.675c-11.311 0-20.48 9.169-20.48 20.48v102.572c0 13.324 12.521 23.1 25.447 19.869l163.84-40.96c9.117-2.279 15.513-10.471 15.513-19.869v-61.612c0-11.311-9.169-20.48-20.48-20.48h-163.84zM367.434 353.635v25.141l-122.88 30.72v-55.861h122.88z" />
<glyph unicode="&#xe91e;" glyph-name="ic_settings" d="M984.615 550.4c21.752 0 39.385-17.633 39.385-39.385v-126.031c0-21.799-17.707-39.452-39.506-39.384l-70.099 0.216c-9.539-38.983-24.683-76.379-44.96-111.016l48.507-48.507c15.381-15.381 15.381-40.318 0-55.698l-88.537-88.537c-15.257-15.257-39.951-15.397-55.381-0.314l-47.875 46.802c-34.755-20.388-72.296-35.605-111.434-45.171v-67.991c0-21.752-17.633-39.385-39.385-39.385h-126.031c-21.752 0-39.385 17.633-39.385 39.385v70.196c-39.019 9.537-76.449 24.69-111.115 44.984l-48.507-48.507c-15.381-15.381-40.318-15.381-55.698 0l-88.537 88.537c-15.233 15.233-15.4 39.879-0.375 55.318l46.9 48.191c-20.406 34.773-35.636 72.335-45.208 111.496h-67.991c-21.752 0-39.385 17.633-39.385 39.385v126.031c0 21.752 17.633 39.385 39.385 39.385h69.566c9.543 39.042 24.709 76.495 45.021 111.178l-47.976 48.191c-15.322 15.391-15.294 40.28 0.062 55.636l88.537 88.537c15.233 15.233 39.879 15.4 55.318 0.375l48.191-46.9c34.773 20.406 72.335 35.636 111.496 45.208v67.991c0 21.752 17.633 39.385 39.385 39.385h126.031c21.752 0 39.385-17.633 39.385-39.385v-69.566c39.042-9.543 76.495-24.709 111.178-45.021l48.191 47.976c15.391 15.322 40.28 15.294 55.636-0.062l88.537-88.537c15.233-15.233 15.4-39.879 0.375-55.318l-46.9-48.191c20.406-34.773 35.636-72.335 45.208-111.496h67.991zM945.231 471.631h-60.81c-19.357 0-35.845 14.067-38.893 33.183-8.005 50.202-27.291 97.935-56.407 139.608-10.823 15.49-9.119 36.484 4.061 50.026l41.589 42.733-33.276 33.276-42.728-42.537c-13.511-13.451-34.716-15.293-50.344-4.374-41.673 29.116-89.406 48.402-139.608 56.407-19.116 3.048-33.183 19.536-33.183 38.893v62.385h-47.262v-60.81c0-19.357-14.067-35.845-33.183-38.893-50.202-8.005-97.935-27.291-139.608-56.407-15.49-10.823-36.484-9.119-50.026 4.061l-42.733 41.589-33.276-33.276 42.538-42.728c13.451-13.511 15.293-34.716 4.374-50.344-29.116-41.673-48.402-89.406-56.407-139.608-3.048-19.116-19.536-33.183-38.893-33.183h-62.385v-47.262h60.81c19.357 0 35.845-14.067 38.893-33.183 8.005-50.202 27.291-97.935 56.407-139.608 10.823-15.49 9.119-36.484-4.061-50.026l-41.589-42.733 33.214-33.214 43.043 43.043c13.504 13.504 34.751 15.374 50.406 4.436 41.673-29.116 89.406-48.402 139.608-56.407 19.116-3.048 33.183-19.536 33.183-38.893v-63.015h47.262v60.81c0 19.357 14.067 35.845 33.183 38.893 50.202 8.005 97.935 27.291 139.608 56.407 15.517 10.842 36.553 9.111 50.089-4.122l42.417-41.466 33.152 33.152-43.043 43.043c-13.504 13.504-15.374 34.751-4.436 50.406 29.116 41.673 48.402 89.406 56.407 139.608 3.055 19.161 19.611 33.242 39.014 33.183l62.894-0.194v47.14zM512 251.077c-108.758 0-196.923 88.165-196.923 196.923s88.165 196.923 196.923 196.923c108.758 0 196.923-88.165 196.923-196.923s-88.165-196.923-196.923-196.923zM512 329.846c65.255 0 118.154 52.899 118.154 118.154s-52.899 118.154-118.154 118.154c-65.255 0-118.154-52.899-118.154-118.154s52.899-118.154 118.154-118.154z" />
<glyph unicode="&#xe91f;" glyph-name="ic_sports_car" horiz-adv-x="3072" d="M1983.621 170.246h140.95c-3.594 17.521-5.483 35.644-5.483 54.186 0 148.992 121.944 270.934 270.933 270.934s270.933-121.942 270.933-270.934c0-18.542-1.889-36.665-5.483-54.186h222.229c28.249 0 49.389 22.405 47.625 50.59l-3.174 48.681c-8.289 132.649-111.448 238.711-243.84 250.397l-342.477 30.188v-0.549h-373c13.771-45.634 20.787-93.118 20.787-140.972v-238.334zM1875.248 170.246v238.334c0.001 48.325-9.265 96.139-27.222 140.972h-27.811l-676.487 21.811v-21.811c0-64.397 12.7-128.315 37.465-187.757l79.83-191.549h614.224zM1862.159 658.007l-245.78 122.891c-116.759 58.38-250.546 72.933-377.19 41.279l-95.462-23.848v-118.604l678.18-21.802h40.053l0.198 0.083zM2173.649 61.874h-1328.322c-49.562-65.703-128.234-108.376-216.372-108.376-88.361 0-167.207 42.889-216.747 108.873v-0.497h-54.187c-163.954 0-298.027 134.066-298.027 298.025v189.653c0 12.124-1.881 24.044-5.715 35.553l-42.333 127.005h339.301l861.695 215.261c75.858 18.964 153.765 24.084 230.293 15.647v0.016c76.528-8.438 151.677-30.228 221.615-65.188l387.985-194.097 635-55.886c184.986-16.343 330.895-166.236 342.477-351.576l3.174-48.681c5.569-89.039-66.577-165.732-155.787-165.732h-271.307c-49.562-65.703-128.234-108.376-216.372-108.376s-166.811 42.673-216.372 108.376zM894.405 170.246h249.333l-62.452 149.856c-30.267 72.643-45.932 150.749-45.932 229.45v25.305l-875.712 28.234c4.484-17.605 8.725-35.334 8.725-53.539v-189.653c0-105.382 84.269-189.653 189.653-189.653h5.483c-3.594 17.521-5.483 35.644-5.483 54.186 0 148.992 121.944 270.934 270.933 270.934s270.933-121.942 270.933-270.934c0-18.542-1.889-36.665-5.483-54.186zM723.094 693.248l312.261-10.038v88.047l-312.261-78.008zM628.954 386.994c-90.422 0-162.56-72.135-162.56-162.562 0-90.415 72.141-162.558 162.56-162.558s162.56 72.143 162.56 162.558c0 90.427-72.138 162.562-162.56 162.562zM2390.021 386.994c-90.422 0-162.56-72.135-162.56-162.562 0-90.415 72.141-162.558 162.56-162.558s162.56 72.143 162.56 162.558c0 90.427-72.138 162.562-162.56 162.562z" />
<glyph unicode="&#xe920;" glyph-name="ic_suv" horiz-adv-x="2292" d="M631.887 864.974l-71.679-200.736 358.853-8.347-44.489 207.644-138.435 5.329c-1.006 0.041-2.013 0.041-3.019 0l-101.232-3.89zM548.583 861.774l-276.144-10.61c-12.44-0.878-23.78-6.905-30.693-17.232l-106.568-159.806 343.546-7.991 69.859 195.64zM954.323 860.466l44.202-206.423 507.87-11.813-157.484 116.11c-81.156 59.813-178.359 93.804-279.092 97.681l-115.496 4.446zM115.352 597.119v-231.337h206.951c34.61 24.366 76.727 38.704 122.040 38.704 110.593 0 202.147-85.412 211.999-193.556h969.374c9.851 108.145 101.406 193.556 211.999 193.556 45.313 0 87.429-14.338 122.040-38.704h206.951v37.952c0 58.699-43.094 107.722-101.298 115.229l-325.293 42.008-0.038-1.636-1624.724 37.784zM649.126 133.512c-25.421-89.128-107.779-154.841-204.784-154.841s-179.362 65.713-204.784 154.841h-104.854c-63.669 0-116.114 52.455-116.114 116.13v38.713c0 19.339 7.341 37.18 19.352 50.85v293.466c0 22.938 6.812 45.346 19.507 64.421l119.892 179.791c20.637 30.963 54.891 50.284 92.071 51.718l460.68 17.701c2.942 0 6.115 0 9.072 0v-0.012l333.674-12.844c116.23-4.476 228.405-43.789 322.039-112.801l217.412-160.136c5.264-3.862 11.472-6.437 17.99-7.285l445.105-57.47c96.205-12.405 168.73-95.004 168.73-192.020v-48.531c23.025-13.519 38.705-38.583 38.705-66.848v-38.713c0-63.675-52.445-116.13-116.114-116.13h-124.207c-25.421-89.128-107.779-154.841-204.784-154.841s-179.362 65.713-204.784 154.841h-983.804zM2027.19 288.355c12.148-23.626 20.004-49.783 22.522-77.426h116.992c21.837 0 38.705 16.881 38.705 38.713v38.713h-178.219zM254.866 288.355h-158.866v-38.713c0-21.826 16.868-38.713 38.705-38.713h97.639c2.518 27.643 10.374 53.801 22.522 77.426zM444.342 327.069c-75.273 0-135.467-60.194-135.467-135.49s60.194-135.49 135.467-135.49c75.273 0 135.467 60.194 135.467 135.49s-60.194 135.49-135.467 135.49zM1837.714 327.069c-75.273 0-135.467-60.194-135.467-135.49s60.194-135.49 135.467-135.49c75.273 0 135.467 60.194 135.467 135.49s-60.194 135.49-135.467 135.49zM1121.219 520.622v-77.423h-77.41v77.423h77.41zM637.866 539.976v-77.417h-77.41v77.417h77.41zM347.58 501.192c-0.001 10.267 4.077 20.114 11.336 27.374s17.104 11.339 27.369 11.339c10.266 0 20.111-4.079 27.369-11.339s11.336-17.107 11.336-27.374c-0.004-21.377-17.331-38.704-38.705-38.704s-38.701 17.327-38.705 38.704z" />
<glyph unicode="&#xe921;" glyph-name="ic_truck" horiz-adv-x="2560" d="M2205.362 366.885h228.265c-18.958 86.16-92.376 151.892-183.984 158.429l-293.209 20.951c-8.777 0.605-17.472 1.791-26.034 3.534v-0.032h-620.999l65.023-325.122h455.298c10.345 113.534 106.477 203.201 222.598 203.201 59.073 0 112.976-23.208 153.042-60.961zM2260.465 285.606c7.549-19.191 12.512-39.657 14.454-60.964h122.841c22.921 0 40.64 17.725 40.64 40.639v20.324h-177.935zM81.28 355.783v234.624c0.003 22.444 18.196 40.637 40.64 40.639h690.849v243.822c0.003 22.444 18.196 40.637 40.64 40.639l579.306 0.018c81.329 0 160.439-27.064 224.634-76.987l238.597-185.742c19.060-14.838 42.119-23.685 66.203-25.405l293.209-20.951c148.49-10.598 264.323-134.821 264.323-283.693v-57.465c0-66.853-55.067-121.918-121.92-121.918h-130.419c-26.695-93.568-113.174-162.558-215.021-162.558-101.855 0-188.33 68.992-215.023 162.561h-992.355c-26.694-93.569-113.174-162.561-215.022-162.561-101.861 0-188.339 68.999-215.027 162.576h-252.333c-66.853 0-121.92 55.066-121.92 121.918v20.306c0 29.678 16.464 55.987 40.64 70.177zM162.56 366.885h314.314c40.065 37.752 93.968 60.961 153.046 60.961 116.114 0 212.252-89.667 222.598-203.201h50.365l-81.28 325.122h-659.043v-182.882zM421.774 285.606h-299.854v-20.306c0-22.917 17.711-40.639 40.64-40.639h244.763c1.942 21.3 6.904 41.76 14.451 60.945zM1291.553 224.645l-65.020 325.122h-321.067l81.243-325.122h304.845zM894.080 631.046h325.12v203.201h-325.12v-203.201zM1300.48 631.046h325.12v128.997l-18.255 14.189c-49.947 38.849-111.362 60.015-174.63 60.015h-132.234v-203.201zM1706.88 631.046h84.682l-84.682 65.821v-65.821zM2052.32 346.567c-79.045 0-142.24-63.203-142.24-142.24s63.195-142.24 142.24-142.24c79.037 0 142.24 63.203 142.24 142.24s-63.203 142.24-142.24 142.24zM629.92 346.567c-79.045 0-142.24-63.203-142.24-142.24s63.195-142.24 142.24-142.24c79.037 0 142.24 63.203 142.24 142.24s-63.203 142.24-142.24 142.24zM1868.806 509.125c14.664 0.22 28.31-7.477 35.707-20.142s7.397-28.331 0-40.996c-7.397-12.664-21.042-20.362-35.707-20.142h-39.535c-14.664-0.22-28.31 7.477-35.707 20.142s-7.397 28.331 0 40.996c7.397 12.664 21.042 20.362 35.707 20.142h39.535zM1462.406 509.125c14.664 0.22 28.31-7.477 35.707-20.142s7.397-28.331 0-40.996c-7.397-12.664-21.042-20.362-35.707-20.142h-39.535c-14.664-0.22-28.31 7.477-35.707 20.142s-7.397 28.331 0 40.996c7.397 12.664 21.042 20.362 35.707 20.142h39.535z" />
<glyph unicode="&#xe922;" glyph-name="ic_wagon" horiz-adv-x="2674" d="M372.498 381.687c37.732 28.419 84.528 45.302 135.057 45.302 116.541 0 213.223-89.81 224.648-203.824h1175.174c0 124.539 101.618 226.464 225.778 226.464 73.447 0 139.005-35.667 180.307-90.583h243.342c-13.967 48.5-54.162 86.162-105.971 95.604l-469.454 85.569h-1699.602c-16.653 0.003-31.954 9.198-39.811 23.926s-6.996 32.598 2.241 46.498l134.653 202.601-32.53-0.665c-13.095 0-25.296-6.144-33.686-16.282l-178.509-214.617c-6.773-8.124-10.404-18.398-10.404-29.013v-170.981h248.765zM300.744 291.104h-176.571c2.615-18.926 16.654-34.119 35.901-37.98l123.408-24.816c2.722 22.048 8.636 43.142 17.262 62.797zM2354.365 268.456c2.995-14.645 4.569-29.793 4.569-45.292 0-7.619-0.38-15.154-1.123-22.586h159.168c25.477 0 45.156 19.763 45.156 45.292v22.586h-207.769zM1926.347 132.572h-1203.461c-28.951-91.619-114.743-158.522-215.33-158.522-101.211 0-187.443 67.736-215.862 160.23l-149.437 30.015c-63.046 12.663-108.834 68.741-108.834 133.239v255.13c0 31.778 11.108 62.45 31.401 86.869l178.5 214.787c25.106 30.208 62.053 48.029 101.248 48.841l935.217 19.046c93.418 2.048 185.508-22.562 265.641-70.769l325.969-196.038c4.696-2.731 9.636-4.881 14.992-5.769l103.307-18.825h7.992v-1.456l469.374-85.529c107.073-19.524 185.382-113.585 185.382-222.751v-75.203c0-74.506-61.186-135.875-135.467-135.875h-188.467c-39.182-67.595-112.215-113.306-195.355-113.306-92.096 0-171.79 56.089-206.809 135.881zM858.324 823.044l-79.853-192.235h394.696l-45.494 197.74-269.349-5.505zM759.761 821.029l-270.873-5.536-122.797-184.684h314.653l79.017 190.22zM1219.936 830.435l45.928-199.626h470.615l-237.614 143.032c-65.566 39.438-140.876 59.416-217.316 57.853l-61.613-1.259zM2133.155 359.046c-75.347 0-135.467-60.3-135.467-135.881s60.12-135.881 135.467-135.881c75.356 0 135.467 60.3 135.467 135.881s-60.111 135.881-135.467 135.881zM507.555 336.395c-75.347 0-135.467-60.29-135.467-135.881 0-75.571 60.12-135.881 135.467-135.881 75.356 0 135.467 60.31 135.467 135.881 0 75.592-60.111 135.881-135.467 135.881zM1387.384 517.568v-90.58h-90.311v90.58h90.311zM868.095 517.568v-90.58h-90.311v90.58h90.311z" />
<glyph unicode="&#xe923;" glyph-name="ic_your_bid" horiz-adv-x="1308" d="M1112.931 960c107.261 0 195.513-93.152 195.513-207.801s-86.895-206.368-195.513-206.368h-133.058l-89.61-94.585c-5.431-7.166-16.293-1.433-16.293 7.166v98.885c-78.748 27.229-134.415 104.617-134.415 196.336 0 114.649 86.895 206.368 195.513 206.368h177.863zM1072.199 683.41c21.724 25.796 13.577 64.49-13.577 78.821-9.504 5.732-19.008 10.032-28.512 14.331-6.789 1.433-12.22 4.299-16.293 8.599-8.146 8.599-6.789 20.064 4.073 25.796 2.715 1.433 6.789 1.433 9.504 1.433 13.577 1.433 25.797-1.433 36.659-7.166 5.431-2.866 8.146-1.433 9.504 4.299 1.358 7.166 4.073 12.898 5.431 20.064 1.358 5.732 0 8.599-4.073 10.032-8.146 2.866-14.935 5.732-23.081 7.166-10.862 1.433-10.862 1.433-10.862 12.898 0 15.764 0 15.764-14.935 15.764-2.715 0-4.073 0-6.789 0-6.789 0-8.146-1.433-8.146-8.599 0-2.866 0-7.166 0-10.032-1.358-10.032-1.358-10.032-9.504-12.898-20.366-7.166-33.943-22.93-35.301-47.293-1.358-21.497 9.504-37.261 25.797-47.293 9.504-7.166 21.724-10.032 32.586-15.764 4.073-1.433 8.146-4.299 12.22-7.166 10.862-8.599 8.146-24.363-4.073-30.095-6.789-2.866-14.935-4.299-21.724-2.866-12.22 1.433-23.081 4.299-32.586 10.032-5.431 2.866-8.146 2.866-9.504-4.299-2.715-5.732-4.073-11.465-5.431-17.197-1.358-7.166-1.358-8.599 6.789-12.898s19.008-7.166 28.512-8.599c8.146-1.433 8.146-1.433 8.146-10.032 0-4.299 0-7.166 0-11.465s1.358-7.166 6.789-7.166c5.431 0 10.862 0 16.293 0 4.073 0 6.789 2.866 6.789 7.166 0 5.732 0 10.032 0 15.764s1.358 8.599 6.789 10.032c10.862 2.866 21.724 8.599 28.512 18.63zM19.59-63.997c-11.822 0.18-20.258 9.626-19.548 22.758 4.709 87.177 53.122 144.583 133.044 179.798 36.356 16.021 75.228 19.904 114.822 18.594 6.497-0.214 13.012-0.031 20.633-0.031 0 21.136 0.11 41.745-0.179 62.349-0.026 1.929-2.259 4.149-3.988 5.689-53.802 47.911-84.702 107.064-94.030 176.994-0.342 2.546-3.676 5.608-6.387 6.813-9.789 4.349-20.702 6.777-29.731 12.194-16.716 10.026-24.827 25.602-24.965 44.69-0.159 21.607 0.855 43.263-0.336 64.809-1.329 24.006 9.513 41.279 29.313 53.563 8.8 5.459 11.21 11.373 11.251 21.042 0.127 29.967 0.525 60.003 2.784 89.875 1.779 23.536 9.987 45.705 23.983 65.404 20.913 29.438 51.042 44.045 86.903 48.074 14.621 1.642 28.464 4.603 42.151 9.939 45.953 17.915 93.722 28.228 143.453 27.642 45.168-0.531 88.375-9.399 126.719-33.83 36.923-23.529 60.695-55.43 64.399-99.144 1.492-17.608-2.147-34.511-8.042-51.18-2.44-6.901-3.719-14.433-4.024-21.735-0.601-14.382-0.416-28.813 0.082-43.202 0.101-2.914 2.422-6.372 4.776-8.481 7.028-6.3 15.12-11.546 21.8-18.142 9.027-8.911 13.062-19.925 12.788-32.708-0.463-21.6-0.129-43.215-0.127-64.822 0.002-35.305-17.129-56.239-52.781-63.425-6.199-1.25-7.971-3.741-8.695-9.291-8.923-68.357-39.625-126.064-91.285-173.613-3.299-3.036-5.814-8.43-5.969-12.817-0.655-18.517-0.276-37.070-0.276-56.711 11.393 0 21.873 0.153 32.345-0.027 33.199-0.573 66.438 1.72 99.413-5.351 81.672-17.51 144.12-83.146 154.208-163.503 1.305-10.4 2.095-20.903 2.343-31.374 0.284-11.944-8.406-20.734-19.606-20.837-11.266-0.104-745.688-0.178-757.241-0.004z" />
</font>
</defs>
</svg>
